<svg width="1363" height="400" viewBox="0 0 1363 400" fill="none" xmlns="http://www.w3.org/2000/svg">
<path d="M0 264.897V141.029H57.8132C72.619 141.029 83.8997 143.978 91.6551 149.877C99.4105 155.657 103.288 163.443 103.288 173.235C103.288 179.841 101.761 185.503 98.7055 190.222C95.6503 194.823 91.5376 198.421 86.3673 201.016C81.3145 203.494 75.7917 204.733 69.7989 204.733L72.9716 198.362C79.9045 198.362 86.1323 199.66 91.6551 202.255C97.1779 204.733 101.526 208.39 104.698 213.226C107.989 218.063 109.634 224.08 109.634 231.276C109.634 241.893 105.58 250.151 97.4717 256.049C89.3637 261.948 77.3193 264.897 61.3384 264.897H0ZM22.9138 246.848H59.9283C68.5063 246.848 75.0867 245.432 79.6694 242.601C84.2522 239.77 86.5436 235.228 86.5436 228.975C86.5436 222.841 84.2522 218.358 79.6694 215.527C75.0867 212.578 68.5063 211.103 59.9283 211.103H21.1512V193.23H55.3456C63.336 193.23 69.4464 191.815 73.6766 188.984C78.0243 186.152 80.1982 181.905 80.1982 176.243C80.1982 170.462 78.0243 166.156 73.6766 163.325C69.4464 160.494 63.336 159.078 55.3456 159.078H22.9138V246.848Z" fill="#172E46"/>
<path d="M187.142 266.667C170.222 266.667 156.943 261.889 147.308 252.333C137.79 242.778 133.031 228.975 133.031 210.926V141.029H155.944V210.041C155.944 222.782 158.647 232.043 164.052 237.823C169.575 243.604 177.331 246.494 187.319 246.494C197.307 246.494 205.003 243.604 210.409 237.823C215.814 232.043 218.517 222.782 218.517 210.041V141.029H241.078V210.926C241.078 228.975 236.26 242.778 226.625 252.333C217.107 261.889 203.946 266.667 187.142 266.667Z" fill="#172E46"/>
<path d="M311.417 266.667C301.781 266.667 292.557 265.31 283.744 262.597C274.931 259.765 267.939 256.167 262.769 251.802L270.701 233.93C275.636 237.823 281.746 241.067 289.032 243.663C296.317 246.258 303.779 247.556 311.417 247.556C317.88 247.556 323.109 246.848 327.104 245.432C331.099 244.016 334.037 242.129 335.917 239.77C337.797 237.292 338.737 234.52 338.737 231.453C338.737 227.678 337.386 224.669 334.683 222.428C331.98 220.069 328.455 218.24 324.107 216.942C319.877 215.527 315.118 214.229 309.83 213.049C304.66 211.87 299.431 210.513 294.143 208.979C288.973 207.328 284.214 205.263 279.866 202.786C275.636 200.191 272.169 196.77 269.467 192.523C266.764 188.276 265.413 182.849 265.413 176.243C265.413 169.519 267.175 163.384 270.701 157.84C274.343 152.177 279.807 147.694 287.093 144.391C294.496 140.97 303.838 139.259 315.118 139.259C322.521 139.259 329.865 140.203 337.151 142.091C344.436 143.978 350.781 146.691 356.187 150.23L348.96 168.103C343.437 164.8 337.738 162.381 331.863 160.848C325.987 159.196 320.347 158.37 314.942 158.37C308.596 158.37 303.426 159.137 299.431 160.671C295.553 162.204 292.674 164.21 290.794 166.687C289.032 169.165 288.15 171.996 288.15 175.181C288.15 178.956 289.443 182.023 292.028 184.383C294.731 186.624 298.197 188.394 302.427 189.691C306.775 190.989 311.593 192.287 316.881 193.584C322.169 194.764 327.398 196.121 332.568 197.654C337.856 199.188 342.615 201.193 346.845 203.671C351.193 206.148 354.659 209.51 357.244 213.757C359.947 218.004 361.298 223.372 361.298 229.86C361.298 236.466 359.477 242.601 355.834 248.263C352.309 253.808 346.845 258.291 339.442 261.712C332.039 265.015 322.697 266.667 311.417 266.667Z" fill="#172E46"/>
<path d="M411.754 264.897V215.881L416.865 230.037L363.283 141.029H387.783L430.79 212.695H417.042L460.402 141.029H482.963L429.38 230.037L434.668 215.881V264.897H411.754Z" fill="#172E46"/>
<path d="M853.761 266.667C844.405 266.667 835.691 265.133 827.621 262.066C819.668 258.881 812.709 254.457 806.744 248.794C800.897 243.014 796.335 236.23 793.06 228.444C789.786 220.658 788.148 212.165 788.148 202.963C788.148 193.761 789.786 185.268 793.06 177.481C796.335 169.695 800.955 162.971 806.92 157.309C812.885 151.528 819.844 147.104 827.797 144.037C835.75 140.852 844.463 139.259 853.937 139.259C863.995 139.259 873.176 141.029 881.48 144.568C889.784 147.989 896.802 153.121 902.532 159.963L887.796 173.942C883.351 169.106 878.381 165.508 872.884 163.148C867.387 160.671 861.422 159.432 854.989 159.432C848.557 159.432 842.65 160.494 837.27 162.617C832.007 164.741 827.387 167.749 823.411 171.642C819.551 175.535 816.51 180.136 814.288 185.444C812.183 190.753 811.13 196.593 811.13 202.963C811.13 209.333 812.183 215.173 814.288 220.481C816.51 225.79 819.551 230.391 823.411 234.284C827.387 238.177 832.007 241.185 837.27 243.309C842.65 245.432 848.557 246.494 854.989 246.494C861.422 246.494 867.387 245.314 872.884 242.955C878.381 240.477 883.351 236.761 887.796 231.807L902.532 245.963C896.802 252.687 889.784 257.819 881.48 261.358C873.176 264.897 863.937 266.667 853.761 266.667Z" fill="#172E46"/>
<path d="M1010.7 141.029H1033.51V264.897H1010.7V141.029ZM947.192 264.897H924.385V141.029H947.192V264.897ZM1012.45 211.811H945.262V192.169H1012.45V211.811Z" fill="#172E46"/>
<path d="M1049.04 264.897L1104.31 141.029H1126.76L1182.2 264.897H1158.34L1110.8 153.239H1119.92L1072.55 264.897H1049.04ZM1074.48 236.23L1080.62 218.181H1146.94L1153.08 236.23H1074.48Z" fill="#172E46"/>
<path d="M1197.82 264.897V141.029H1220.63V264.897H1197.82Z" fill="#172E46"/>
<path d="M1253.84 264.897V141.029H1272.61L1349.63 236.407H1340.33V141.029H1362.96V264.897H1344.19L1267.17 169.519H1276.47V264.897H1253.84Z" fill="#172E46"/>
<g clip-path="url(#clip0_405_256)">
<path d="M547.277 13.654L537.385 0H426.667L566.189 192.737L621.532 116.236L547.277 13.654Z" fill="#172E46"/>
<path d="M426.667 398.386H537.385L621.532 282.15L566.189 205.649L426.667 398.386Z" fill="#172E46"/>
<path d="M721.841 0L637.695 116.236L582.352 192.737L582.837 193.415H692.586L693.071 192.737L832.593 0H721.841Z" fill="#172E46"/>
<path d="M721.841 400L637.695 283.764L582.352 207.263L582.837 206.585H692.586L693.071 207.263L832.593 400H721.841Z" fill="#172E46"/>
</g>
<defs>
<clipPath id="clip0_405_256">
<rect width="405.926" height="400" fill="white" transform="translate(426.667)"/>
</clipPath>
</defs>
</svg>
