<svg width="460" height="135" viewBox="0 0 460 135" fill="none" xmlns="http://www.w3.org/2000/svg">
<path d="M0 89.4028V47.5972H19.512C24.5089 47.5972 28.3161 48.5926 30.9336 50.5833C33.5511 52.5343 34.8598 55.162 34.8598 58.4667C34.8598 60.6963 34.3442 62.6074 33.3131 64.2C32.282 65.7528 30.8939 66.9671 29.149 67.8431C27.4437 68.6792 25.5797 69.0972 23.5571 69.0972L24.6279 66.9472C26.9678 66.9472 29.0696 67.3852 30.9336 68.2611C32.7975 69.0972 34.2649 70.3315 35.3357 71.9639C36.4461 73.5963 37.0013 75.6269 37.0013 78.0556C37.0013 81.6389 35.6331 84.4259 32.8967 86.4167C30.1603 88.4074 26.0953 89.4028 20.7017 89.4028H0ZM7.7334 83.3111H20.2258C23.1209 83.3111 25.3418 82.8333 26.8884 81.8778C28.4351 80.9222 29.2085 79.3894 29.2085 77.2792C29.2085 75.2088 28.4351 73.6958 26.8884 72.7403C25.3418 71.7449 23.1209 71.2472 20.2258 71.2472H7.13852V65.2153H18.6791C21.3759 65.2153 23.4381 64.7375 24.8659 63.7819C26.3332 62.8264 27.0669 61.3931 27.0669 59.4819C27.0669 57.531 26.3332 56.0778 24.8659 55.1222C23.4381 54.1667 21.3759 53.6889 18.6791 53.6889H7.7334V83.3111Z" fill="white"/>
<path d="M63.1606 90C57.4498 90 52.9684 88.3875 49.7164 85.1625C46.504 81.9375 44.8979 77.2792 44.8979 71.1875V47.5972H52.6313V70.8889C52.6313 75.1889 53.5434 78.3144 55.3677 80.2653C57.2316 82.2162 59.8491 83.1917 63.2201 83.1917C66.591 83.1917 69.1887 82.2162 71.013 80.2653C72.8372 78.3144 73.7494 75.1889 73.7494 70.8889V47.5972H81.3638V71.1875C81.3638 77.2792 79.7378 81.9375 76.4858 85.1625C73.2735 88.3875 68.8317 90 63.1606 90Z" fill="white"/>
<path d="M105.103 90C101.851 90 98.7379 89.5421 95.7636 88.6264C92.7892 87.6708 90.4295 86.4565 88.6845 84.9833L91.3615 78.9514C93.0271 80.2653 95.0894 81.3602 97.5482 82.2361C100.007 83.112 102.525 83.55 105.103 83.55C107.284 83.55 109.049 83.3111 110.398 82.8333C111.746 82.3556 112.737 81.7185 113.372 80.9222C114.006 80.0861 114.324 79.1505 114.324 78.1153C114.324 76.8412 113.868 75.8259 112.955 75.0694C112.043 74.2731 110.854 73.656 109.386 73.2181C107.959 72.7403 106.352 72.3023 104.568 71.9042C102.823 71.506 101.058 71.0481 99.2733 70.5306C97.5284 69.9731 95.9222 69.2764 94.4548 68.4403C93.0271 67.5644 91.8572 66.4097 90.9451 64.9764C90.0329 63.5431 89.5768 61.7116 89.5768 59.4819C89.5768 57.2125 90.1717 55.1421 91.3615 53.2708C92.5909 51.3597 94.435 49.8468 96.8938 48.7319C99.3923 47.5773 102.545 47 106.352 47C108.851 47 111.33 47.3185 113.788 47.9556C116.247 48.5926 118.389 49.5083 120.213 50.7028L117.774 56.7347C115.91 55.6199 113.987 54.8037 112.004 54.2861C110.021 53.7287 108.117 53.45 106.293 53.45C104.151 53.45 102.406 53.7088 101.058 54.2264C99.7492 54.744 98.7776 55.4208 98.1431 56.2569C97.5482 57.0931 97.2508 58.0486 97.2508 59.1236C97.2508 60.3977 97.687 61.4329 98.5595 62.2292C99.4716 62.9856 100.642 63.5829 102.069 64.0208C103.537 64.4588 105.163 64.8968 106.947 65.3347C108.732 65.7329 110.497 66.1907 112.242 66.7083C114.026 67.2259 115.632 67.9028 117.06 68.7389C118.528 69.575 119.697 70.7097 120.57 72.1431C121.482 73.5764 121.938 75.388 121.938 77.5778C121.938 79.8074 121.323 81.8778 120.094 83.7889C118.904 85.6602 117.06 87.1732 114.562 88.3278C112.063 89.4426 108.91 90 105.103 90Z" fill="white"/>
<path d="M138.967 89.4028V72.8597L140.692 77.6375L122.608 47.5972H130.877L145.392 71.7847H140.752L155.386 47.5972H163L144.916 77.6375L146.7 72.8597V89.4028H138.967Z" fill="white"/>
<path d="M288.144 90C284.987 90 282.046 89.4824 279.322 88.4472C276.638 87.3722 274.289 85.8792 272.276 83.9681C270.303 82.0171 268.763 79.7278 267.658 77.1C266.553 74.4722 266 71.6056 266 68.5C266 65.3944 266.553 62.5278 267.658 59.9C268.763 57.2722 270.322 55.0028 272.335 53.0917C274.349 51.1407 276.697 49.6477 279.381 48.6125C282.066 47.5375 285.006 47 288.204 47C291.598 47 294.697 47.5972 297.5 48.7917C300.302 49.9463 302.671 51.6782 304.605 53.9875L299.631 58.7056C298.131 57.0731 296.454 55.8588 294.598 55.0625C292.743 54.2264 290.73 53.8083 288.559 53.8083C286.388 53.8083 284.394 54.1667 282.579 54.8833C280.802 55.6 279.243 56.6153 277.901 57.9292C276.599 59.2431 275.572 60.7958 274.822 62.5875C274.112 64.3792 273.756 66.35 273.756 68.5C273.756 70.65 274.112 72.6208 274.822 74.4125C275.572 76.2042 276.599 77.7569 277.901 79.0708C279.243 80.3847 280.802 81.4 282.579 82.1167C284.394 82.8333 286.388 83.1917 288.559 83.1917C290.73 83.1917 292.743 82.7935 294.598 81.9972C296.454 81.1611 298.131 79.9069 299.631 78.2347L304.605 83.0125C302.671 85.2819 300.302 87.0139 297.5 88.2083C294.697 89.4028 291.579 90 288.144 90Z" fill="white"/>
<path d="M341.111 47.5972H348.808V89.4028H341.111V47.5972ZM319.677 89.4028H311.98V47.5972H319.677V89.4028ZM341.703 71.4861H319.026V64.8569H341.703V71.4861Z" fill="white"/>
<path d="M354.053 89.4028L372.704 47.5972H380.283L398.993 89.4028H390.94L374.894 51.7181H377.973L361.987 89.4028H354.053ZM362.638 79.7278L364.71 73.6361H387.092L389.164 79.7278H362.638Z" fill="white"/>
<path d="M404.264 89.4028V47.5972H411.961V89.4028H404.264Z" fill="white"/>
<path d="M423.172 89.4028V47.5972H429.507L455.5 79.7875H452.362V47.5972H460V89.4028H453.665L427.672 57.2125H430.81V89.4028H423.172Z" fill="white"/>
<g clip-path="url(#clip0_282_687)">
<path d="M184.706 4.60821L181.368 0H144L191.089 65.0488L209.767 39.2297L184.706 4.60821Z" fill="white"/>
<path d="M144 134.455H181.368L209.767 95.2256L191.089 69.4065L144 134.455Z" fill="white"/>
<path d="M243.621 0L215.222 39.2297L196.544 65.0488L196.707 65.2776H233.748L233.911 65.0488L281 0H243.621Z" fill="white"/>
<path d="M243.621 135L215.222 95.7703L196.544 69.9512L196.707 69.7224H233.748L233.911 69.9512L281 135H243.621Z" fill="white"/>
</g>
<defs>
<clipPath id="clip0_282_687">
<rect width="137" height="135" fill="white" transform="translate(144)"/>
</clipPath>
</defs>
</svg>
